<mxfile host="app.diagrams.net" agent="Mozilla/5.0 (Windows NT 10.0; Win64; x64) AppleWebKit/537.36 (KHTML, like Gecko) Chrome/131.0.0.0 Safari/537.36" version="25.0.3">
  <diagram name="Page-1" id="c7558073-3199-34d8-9f00-42111426c3f3">
    <mxGraphModel dx="2360" dy="2315" grid="1" gridSize="10" guides="1" tooltips="1" connect="1" arrows="1" fold="1" page="1" pageScale="1" pageWidth="1100" pageHeight="1700" background="none" math="0" shadow="0">
      <root>
        <mxCell id="0" />
        <mxCell id="1" parent="0" />
        <mxCell id="AFegHEFUYES55JKBaeoe-96" value="discord" style="shape=umlActor;verticalLabelPosition=bottom;verticalAlign=top;html=1;outlineConnect=0;" vertex="1" parent="1">
          <mxGeometry x="990" y="230" width="30" height="60" as="geometry" />
        </mxCell>
        <mxCell id="AFegHEFUYES55JKBaeoe-104" value="알림 메세지" style="edgeStyle=orthogonalEdgeStyle;rounded=0;orthogonalLoop=1;jettySize=auto;html=1;exitX=1;exitY=0.5;exitDx=0;exitDy=0;" edge="1" parent="1" source="AFegHEFUYES55JKBaeoe-100" target="AFegHEFUYES55JKBaeoe-96">
          <mxGeometry relative="1" as="geometry" />
        </mxCell>
        <mxCell id="AFegHEFUYES55JKBaeoe-100" value="주식 매매 알림" style="rounded=0;whiteSpace=wrap;html=1;" vertex="1" parent="1">
          <mxGeometry x="740" y="230" width="120" height="60" as="geometry" />
        </mxCell>
        <mxCell id="AFegHEFUYES55JKBaeoe-101" style="edgeStyle=orthogonalEdgeStyle;rounded=0;orthogonalLoop=1;jettySize=auto;html=1;exitX=0.5;exitY=1;exitDx=0;exitDy=0;" edge="1" parent="1" source="AFegHEFUYES55JKBaeoe-100" target="AFegHEFUYES55JKBaeoe-100">
          <mxGeometry relative="1" as="geometry" />
        </mxCell>
        <mxCell id="AFegHEFUYES55JKBaeoe-136" value="하나 선택" style="edgeStyle=orthogonalEdgeStyle;rounded=0;orthogonalLoop=1;jettySize=auto;html=1;exitX=0.5;exitY=1;exitDx=0;exitDy=0;entryX=0.5;entryY=0;entryDx=0;entryDy=0;" edge="1" parent="1" source="AFegHEFUYES55JKBaeoe-112" target="AFegHEFUYES55JKBaeoe-130">
          <mxGeometry relative="1" as="geometry" />
        </mxCell>
        <mxCell id="AFegHEFUYES55JKBaeoe-112" value="주식종목&lt;div&gt;리스트&lt;/div&gt;" style="shape=delay;whiteSpace=wrap;html=1;" vertex="1" parent="1">
          <mxGeometry x="-170" y="-40" width="80" height="40" as="geometry" />
        </mxCell>
        <mxCell id="AFegHEFUYES55JKBaeoe-134" style="edgeStyle=orthogonalEdgeStyle;rounded=0;orthogonalLoop=1;jettySize=auto;html=1;exitX=1;exitY=0.5;exitDx=0;exitDy=0;entryX=0;entryY=0.5;entryDx=0;entryDy=0;" edge="1" parent="1" source="AFegHEFUYES55JKBaeoe-113" target="AFegHEFUYES55JKBaeoe-122">
          <mxGeometry relative="1" as="geometry" />
        </mxCell>
        <mxCell id="AFegHEFUYES55JKBaeoe-113" value="과거 주식 가격 데이터" style="shape=delay;whiteSpace=wrap;html=1;" vertex="1" parent="1">
          <mxGeometry x="40" y="540" width="80" height="40" as="geometry" />
        </mxCell>
        <mxCell id="AFegHEFUYES55JKBaeoe-131" style="edgeStyle=orthogonalEdgeStyle;rounded=0;orthogonalLoop=1;jettySize=auto;html=1;exitX=1;exitY=0.5;exitDx=0;exitDy=0;entryX=0;entryY=0.5;entryDx=0;entryDy=0;" edge="1" parent="1" source="AFegHEFUYES55JKBaeoe-114" target="AFegHEFUYES55JKBaeoe-120">
          <mxGeometry relative="1" as="geometry" />
        </mxCell>
        <mxCell id="AFegHEFUYES55JKBaeoe-114" value="주식차트&amp;nbsp;&lt;div&gt;이미지&lt;/div&gt;" style="shape=delay;whiteSpace=wrap;html=1;" vertex="1" parent="1">
          <mxGeometry x="40" y="100" width="80" height="40" as="geometry" />
        </mxCell>
        <mxCell id="AFegHEFUYES55JKBaeoe-133" style="edgeStyle=orthogonalEdgeStyle;rounded=0;orthogonalLoop=1;jettySize=auto;html=1;exitX=1;exitY=0.5;exitDx=0;exitDy=0;entryX=0;entryY=0.5;entryDx=0;entryDy=0;" edge="1" parent="1" source="AFegHEFUYES55JKBaeoe-115" target="AFegHEFUYES55JKBaeoe-118">
          <mxGeometry relative="1" as="geometry" />
        </mxCell>
        <mxCell id="AFegHEFUYES55JKBaeoe-115" value="오늘 이전&lt;div&gt;뉴스기사&lt;/div&gt;" style="shape=delay;whiteSpace=wrap;html=1;" vertex="1" parent="1">
          <mxGeometry x="40" y="430" width="80" height="40" as="geometry" />
        </mxCell>
        <mxCell id="AFegHEFUYES55JKBaeoe-132" style="edgeStyle=orthogonalEdgeStyle;rounded=0;orthogonalLoop=1;jettySize=auto;html=1;exitX=1;exitY=0.5;exitDx=0;exitDy=0;entryX=0;entryY=0.5;entryDx=0;entryDy=0;" edge="1" parent="1" source="AFegHEFUYES55JKBaeoe-117" target="AFegHEFUYES55JKBaeoe-125">
          <mxGeometry relative="1" as="geometry" />
        </mxCell>
        <mxCell id="AFegHEFUYES55JKBaeoe-117" value="제무제표&lt;div&gt;및&lt;/div&gt;&lt;div&gt;종목 정보&lt;/div&gt;" style="shape=delay;whiteSpace=wrap;html=1;" vertex="1" parent="1">
          <mxGeometry x="40" y="200" width="80" height="50" as="geometry" />
        </mxCell>
        <mxCell id="AFegHEFUYES55JKBaeoe-118" value="감성분석 AI" style="shape=process;whiteSpace=wrap;html=1;backgroundOutline=1;" vertex="1" parent="1">
          <mxGeometry x="180" y="420" width="120" height="60" as="geometry" />
        </mxCell>
        <mxCell id="AFegHEFUYES55JKBaeoe-120" value="이미지 AI" style="shape=process;whiteSpace=wrap;html=1;backgroundOutline=1;" vertex="1" parent="1">
          <mxGeometry x="180" y="90" width="120" height="60" as="geometry" />
        </mxCell>
        <mxCell id="AFegHEFUYES55JKBaeoe-121" value="mlp" style="shape=process;whiteSpace=wrap;html=1;backgroundOutline=1;" vertex="1" parent="1">
          <mxGeometry x="450" y="220" width="120" height="60" as="geometry" />
        </mxCell>
        <mxCell id="AFegHEFUYES55JKBaeoe-122" value="transformer&lt;div&gt;or&lt;br&gt;&lt;div&gt;RNN&lt;/div&gt;&lt;/div&gt;" style="shape=process;whiteSpace=wrap;html=1;backgroundOutline=1;" vertex="1" parent="1">
          <mxGeometry x="180" y="530" width="120" height="60" as="geometry" />
        </mxCell>
        <mxCell id="AFegHEFUYES55JKBaeoe-124" value="transformer&lt;div&gt;or&lt;br&gt;&lt;div&gt;RNN&lt;/div&gt;&lt;/div&gt;" style="shape=process;whiteSpace=wrap;html=1;backgroundOutline=1;" vertex="1" parent="1">
          <mxGeometry x="450" y="380" width="120" height="60" as="geometry" />
        </mxCell>
        <mxCell id="AFegHEFUYES55JKBaeoe-125" value="mlp" style="shape=process;whiteSpace=wrap;html=1;backgroundOutline=1;" vertex="1" parent="1">
          <mxGeometry x="180" y="195" width="120" height="60" as="geometry" />
        </mxCell>
        <mxCell id="AFegHEFUYES55JKBaeoe-137" style="edgeStyle=orthogonalEdgeStyle;rounded=0;orthogonalLoop=1;jettySize=auto;html=1;exitX=1;exitY=0.5;exitDx=0;exitDy=0;entryX=0;entryY=0.5;entryDx=0;entryDy=0;" edge="1" parent="1" source="AFegHEFUYES55JKBaeoe-130" target="AFegHEFUYES55JKBaeoe-117">
          <mxGeometry relative="1" as="geometry" />
        </mxCell>
        <mxCell id="AFegHEFUYES55JKBaeoe-138" style="edgeStyle=orthogonalEdgeStyle;rounded=0;orthogonalLoop=1;jettySize=auto;html=1;exitX=1;exitY=0.5;exitDx=0;exitDy=0;entryX=0;entryY=0.5;entryDx=0;entryDy=0;" edge="1" parent="1" source="AFegHEFUYES55JKBaeoe-130" target="AFegHEFUYES55JKBaeoe-114">
          <mxGeometry relative="1" as="geometry" />
        </mxCell>
        <mxCell id="AFegHEFUYES55JKBaeoe-139" style="edgeStyle=orthogonalEdgeStyle;rounded=0;orthogonalLoop=1;jettySize=auto;html=1;exitX=1;exitY=0.5;exitDx=0;exitDy=0;entryX=0;entryY=0.5;entryDx=0;entryDy=0;" edge="1" parent="1" source="AFegHEFUYES55JKBaeoe-130" target="AFegHEFUYES55JKBaeoe-115">
          <mxGeometry relative="1" as="geometry" />
        </mxCell>
        <mxCell id="AFegHEFUYES55JKBaeoe-140" style="edgeStyle=orthogonalEdgeStyle;rounded=0;orthogonalLoop=1;jettySize=auto;html=1;exitX=1;exitY=0.5;exitDx=0;exitDy=0;entryX=0;entryY=0.5;entryDx=0;entryDy=0;" edge="1" parent="1" source="AFegHEFUYES55JKBaeoe-130" target="AFegHEFUYES55JKBaeoe-113">
          <mxGeometry relative="1" as="geometry" />
        </mxCell>
        <mxCell id="AFegHEFUYES55JKBaeoe-130" value="크롤링" style="rounded=0;whiteSpace=wrap;html=1;" vertex="1" parent="1">
          <mxGeometry x="-170" y="320" width="80" height="40" as="geometry" />
        </mxCell>
      </root>
    </mxGraphModel>
  </diagram>
</mxfile>
